<svg id="Instagram_w_circle" data-name="Instagram w circle" xmlns="http://www.w3.org/2000/svg" viewBox="0 0 19.2 19.2"><defs><style>.cls-1{fill:#c1282e;}</style></defs><title>instagram</title><path class="cls-1" d="M13.5,6.65a1.66,1.66,0,0,0-.95-.95,2.77,2.77,0,0,0-.93-.17c-.53,0-.69,0-2,0s-1.49,0-2,0a2.77,2.77,0,0,0-.93.17,1.66,1.66,0,0,0-.95.95,2.77,2.77,0,0,0-.17.93c0,.53,0,.69,0,2s0,1.49,0,2a2.77,2.77,0,0,0,.17.93,1.66,1.66,0,0,0,.95.95,2.77,2.77,0,0,0,.93.17c.53,0,.69,0,2,0s1.49,0,2,0a2.77,2.77,0,0,0,.93-.17,1.66,1.66,0,0,0,.95-.95,2.77,2.77,0,0,0,.17-.93c0-.53,0-.69,0-2s0-1.49,0-2A2.77,2.77,0,0,0,13.5,6.65ZM9.6,12.17A2.57,2.57,0,1,1,12.17,9.6h0A2.57,2.57,0,0,1,9.6,12.17Zm2.67-4.64a.6.6,0,1,1,.6-.6.6.6,0,0,1-.6.6Zm-1,2.07A1.67,1.67,0,1,1,9.6,7.93h0A1.67,1.67,0,0,1,11.27,9.6ZM9.6,0a9.6,9.6,0,1,0,9.6,9.6h0A9.6,9.6,0,0,0,9.6,0Zm5,11.66a3.67,3.67,0,0,1-.23,1.21,2.56,2.56,0,0,1-1.46,1.46,3.67,3.67,0,0,1-1.21.23c-.53,0-.7,0-2.06,0s-1.53,0-2.06,0a3.67,3.67,0,0,1-1.21-.23,2.56,2.56,0,0,1-1.46-1.46,3.67,3.67,0,0,1-.23-1.21c0-.53,0-.7,0-2.06s0-1.53,0-2.06a3.67,3.67,0,0,1,.23-1.21A2.56,2.56,0,0,1,6.32,4.86a3.67,3.67,0,0,1,1.21-.23c.53,0,.7,0,2.06,0s1.53,0,2.06,0a3.67,3.67,0,0,1,1.21.23,2.56,2.56,0,0,1,1.46,1.46,3.67,3.67,0,0,1,.23,1.21c0,.53,0,.7,0,2.06s0,1.53,0,2.06Z" transform="translate(0 0)"/></svg>