<svg id="LinkedIn_w_circle" data-name="LinkedIn w/ circle" xmlns="http://www.w3.org/2000/svg" viewBox="0 0 19.2 19.2"><defs><style>.cls-1{fill:#c1282e;}</style></defs><title>linkedin</title><path class="cls-1" d="M10,.4A9.6,9.6,0,1,0,19.6,10,9.6,9.6,0,0,0,10,.4ZM7.65,14H5.71V7.72H7.65Zm-1-7A1,1,0,1,1,6.69,5,1,1,0,1,1,6.67,7Zm8.08,7H12.81V10.51c0-.81-.28-1.36-1-1.36a1.07,1.07,0,0,0-1,.73,1.38,1.38,0,0,0-.06.49V14H8.81V9.72c0-.78,0-1.43-.05-2h1.69l.09.87h0a2.25,2.25,0,0,1,1.93-1c1.28,0,2.24.86,2.24,2.7Z" transform="translate(-0.4 -0.4)"/></svg>