<svg id="Twitter_w_circle" data-name="Twitter w/ circle" xmlns="http://www.w3.org/2000/svg" viewBox="0 0 19.2 19.2"><defs><style>.cls-1{fill:#c1282e;}</style></defs><title>twitter</title><path class="cls-1" d="M10,.4A9.6,9.6,0,1,0,19.6,10,9.6,9.6,0,0,0,10,.4Zm3.9,7.86c0,.08,0,.16,0,.24A5.38,5.38,0,0,1,5.63,13l.45,0a3.79,3.79,0,0,0,2.35-.81,1.89,1.89,0,0,1-1.77-1.31A2,2,0,0,0,7,11a1.9,1.9,0,0,0,.5-.07A1.89,1.89,0,0,1,6,9.06V9a1.9,1.9,0,0,0,.86.24,1.9,1.9,0,0,1-.59-2.53,5.38,5.38,0,0,0,3.9,2,1.86,1.86,0,0,1,0-.43A1.89,1.89,0,0,1,13.39,7a3.8,3.8,0,0,0,1.2-.46,1.9,1.9,0,0,1-.83,1,3.8,3.8,0,0,0,1.09-.3A3.83,3.83,0,0,1,13.9,8.26Z" transform="translate(-0.4 -0.4)"/></svg>