<svg id="Youtube_w_circle" data-name="Youtube w circle" xmlns="http://www.w3.org/2000/svg" viewBox="0 0 10 7.8"><defs><style>.cls-1{fill:#fff;}.cls-2{fill:#c1282e;}</style></defs><title>youtube1</title><path class="cls-1" d="M6.6,3.73l-2.25-1A.23.23,0,0,0,4,2.9v2a.23.23,0,0,0,.36.23l2.24-1C6.8,4,6.8,3.82,6.6,3.73ZM5,7.8c-4.91,0-5-.44-5-3.9S.09,0,5,0s5,.44,5,3.9S9.91,7.8,5,7.8Z"/><path class="cls-2" d="M4,5.07V2.86a.19.19,0,0,1,.27-.17L6.65,3.79a.19.19,0,0,1,0,.35L4.26,5.24A.19.19,0,0,1,4,5.07Z"/></svg>